<svg xmlns="http://www.w3.org/2000/svg" width="32" height="32" fill="none" viewBox="0 0 32 32"><path fill="#fff" d="M24 5.5v22l-8-5-8 5v-22a1 1 0 0 1 1-1h14a1 1 0 0 1 1 1" opacity=".24"/><path fill="url(#a)" d="M23 3.5H9a2 2 0 0 0-2 2v22a1 1 0 0 0 1.53.848L16 23.679l7.471 4.669A.999.999 0 0 0 25 27.5v-22a2 2 0 0 0-2-2m0 22.197-6.471-4.044a1 1 0 0 0-1.06 0L9 25.697V5.5h14z"/><defs><linearGradient id="a" x1="8.241" x2="30.645" y1="3.5" y2="17.406" gradientUnits="userSpaceOnUse"><stop stop-color="#cfcfcf"/><stop offset=".64" stop-color="#e5e5e5"/><stop offset="1" stop-color="#8f8f8f"/></linearGradient></defs></svg>