<svg xmlns="http://www.w3.org/2000/svg" width="192" height="192" fill="none" viewBox="0 0 192 192"><rect width="192" height="192" fill="url(#a)" rx="44"/><path fill="#ebefff" d="M164.493 52c-5.5-9-20-10-41-3-8-5-17.5-8-28-8-30.5 0-55 24.5-55 55 0 2 0 4 .5 6-14 15.5-19 28.5-13.5 37 3.5 5.5 9.5 7.5 17.5 7.5 17.5 0 44-11 67-26 17.5-11 33-24 42.5-36.5 14.5-16.5 13.5-26.5 10-32m-128.5 82c-2-3 0-10 8-19.5q4.5 12 13.5 21c-11.5 2.5-19.5 2-21.5-1.5m111.5-56c-3-8.5-7.5-16-14-22 13-3 20.5-2 22.5 1s.5 10-8.5 21"/><path fill="#79aaff" d="M74.493 147c6.5 2.5 13.5 4 21 4 28.999 0 52.499-22.5 54.999-51-9.5 9-21 18-32.999 26-15 9-29.5 16.5-43 21"/><defs><linearGradient id="a" x1="96" x2="96" y1="0" y2="192" gradientUnits="userSpaceOnUse"><stop stop-color="#0866ff"/><stop offset="1" stop-color="#0042ad"/></linearGradient></defs></svg>