<svg xmlns="http://www.w3.org/2000/svg" width="32" height="32" fill="none" viewBox="0 0 32 32"><path fill="#fff" d="M29 11.75C29 20 16 27 16 27S3 20 3 11.75A6.75 6.75 0 0 1 9.75 5c2.824 0 5.243 1.539 6.25 4 1.008-2.461 3.426-4 6.25-4A6.75 6.75 0 0 1 29 11.75" opacity=".24"/><path fill="url(#a)" d="M22.25 4.003c-2.581 0-4.841 1.11-6.25 2.986-1.409-1.876-3.669-2.986-6.25-2.986A7.76 7.76 0 0 0 2 11.753c0 8.75 12.974 15.832 13.526 16.125a1 1 0 0 0 .948 0C17.026 27.585 30 20.503 30 11.753a7.76 7.76 0 0 0-7.75-7.75M16 25.853c-2.283-1.33-12-7.389-12-14.1a5.757 5.757 0 0 1 5.75-5.75c2.431 0 4.473 1.295 5.325 3.375a1 1 0 0 0 1.85 0c.852-2.084 2.894-3.375 5.325-3.375a5.757 5.757 0 0 1 5.75 5.75c0 6.701-9.72 12.769-12 14.1"/><defs><linearGradient id="a" x1="3.931" x2="27.925" y1="4.003" y2="28.141" gradientUnits="userSpaceOnUse"><stop stop-color="#cfcfcf"/><stop offset=".64" stop-color="#e5e5e5"/><stop offset="1" stop-color="#8f8f8f"/></linearGradient></defs></svg>