<svg xmlns="http://www.w3.org/2000/svg" width="962" height="96" fill="none" viewBox="0 0 962 96"><g clip-path="url(#a)"><path fill="#4da8ff" d="M121.473 9.6c-4.8-7.855-17.454-8.727-35.782-2.618C78.71 2.618 70.42 0 61.255 0c-26.618 0-48 21.382-48 48 0 1.745 0 3.49.437 5.236C1.474 66.763-2.89 78.11 1.91 85.527c3.054 4.8 8.29 6.545 15.273 6.545 15.272 0 38.4-9.6 58.472-22.69 15.273-9.6 28.8-20.946 37.091-31.855C125.4 23.127 124.528 14.4 121.473 9.6M9.328 81.163c-1.745-2.618 0-8.727 6.982-17.018q3.927 10.473 11.782 18.327c-10.037 2.182-17.018 1.746-18.764-1.309m97.309-48.872c-2.618-7.418-6.546-13.964-12.218-19.2 11.345-2.618 17.891-1.746 19.636.873s.436 8.727-7.418 18.327"/><path fill="#006aff" d="M42.928 92.51C48.6 94.69 54.71 96 61.255 96c25.309 0 45.818-19.636 48-44.509-8.291 7.855-18.327 15.71-28.8 22.691-13.091 7.855-25.745 14.4-37.527 18.327"/><path fill="#e6f2ff" d="M940.678 93q-5.032 0-9.831-1.287-4.798-1.288-7.491-3.277l.234 3.51h-8.894l-.468-20.13h7.607q.35 3.511 2.809 6.438 2.457 2.925 6.437 4.681 3.978 1.638 8.894 1.638 1.99 0 3.745-.585 1.873-.585 3.043-1.872 1.288-1.404 1.288-3.394 0-2.224-1.639-3.628-1.52-1.405-4.564-2.692-2.926-1.287-7.373-2.926a480 480 0 0 1-7.374-2.926 40.3 40.3 0 0 1-6.788-3.628q-3.043-2.223-4.915-5.384-1.873-3.276-1.873-7.958 0-3.394 1.288-6.671 1.287-3.394 3.979-6.086 2.692-2.808 6.788-4.447 4.213-1.639 9.948-1.639 3.16 0 7.139 1.054 4.097.936 6.905 2.926v-3.394h8.895v20.715h-7.607q-.703-4.097-2.926-7.022-2.107-2.926-5.501-4.448-3.394-1.638-7.607-1.638-2.926 0-5.384 1.404-2.34 1.404-2.341 4.799 0 2.691 1.873 4.33 1.872 1.522 5.15 2.575 3.276 1.053 7.256 2.457 5.969 1.99 10.533 4.682 4.682 2.692 7.373 6.554 2.692 3.746 2.692 9.246 0 6.086-3.043 10.065t-7.958 5.968Q946.179 93 940.678 93M839.126 91.128V83.52q3.277 0 4.681-1.287 1.405-1.288 1.756-3.628.468-2.458.468-5.501V53.442q0-2.106.117-4.681.117-2.692.351-5.267a266 266 0 0 1-4.447.234q-2.458 0-3.745.117v-8.894q5.384 0 9.128-.586 3.746-.585 5.852-1.404 2.224-.819 3.043-1.521h5.735q.234 1.521.234 2.223v1.405q.117.584.468 2.223 2.34-1.872 5.384-3.277a32.5 32.5 0 0 1 6.085-2.34q3.044-.937 5.384-.937 10.767 0 15.215 6.203 4.564 6.086 4.564 19.662v15.683q0 1.639-.117 4.681-.117 2.925-.351 5.618a36 36 0 0 1 4.213-.234q2.224-.117 3.394-.117v8.894h-30.663V83.52q3.277 0 4.681-1.287 1.522-1.288 1.873-3.628.468-2.458.468-5.501l-.117-16.619q0-7.607-2.224-11.235-2.106-3.745-7.256-3.745-2.925 0-5.852 1.287-2.808 1.287-4.798 3.043v26.45q0 1.639-.117 4.681-.117 2.925-.351 5.618a33 33 0 0 1 4.096-.234q2.341-.117 3.511-.117v8.894zM801.51 93q-8.427 0-15.215-3.628t-10.767-10.3q-3.862-6.787-3.862-15.916 0-9.714 3.979-16.97 4.096-7.374 10.767-11.352 6.788-4.097 14.747-4.097 8.427 0 15.097 3.628 6.672 3.629 10.534 10.417 3.861 6.671 3.862 16.033 0 9.831-3.745 17.088-3.745 7.255-10.299 11.235Q810.053 93 801.51 93m.468-8.31q4.682-.117 7.022-3.276 2.458-3.16 3.394-7.959t.936-9.714q0-4.33-.702-8.777-.585-4.448-1.989-8.076t-3.862-5.852q-2.341-2.223-5.852-2.106-4.565.117-7.256 3.277-2.575 3.16-3.746 7.958-1.053 4.682-1.053 9.831 0 5.969 1.288 11.704 1.287 5.734 4.096 9.48 2.925 3.628 7.724 3.51M712.018 91.128V82.7l26.918-35.461a91 91 0 0 1 3.745-4.565q1.755-1.989 2.223-2.457l-15.799.234q-2.692 0-4.448 2.106-1.638 1.99-2.691 5.267-1.054 3.277-1.639 7.373h-7.256l1.638-22.588h47.4v7.374L736.01 75.445a45 45 0 0 1-3.277 3.98 41 41 0 0 1-3.277 3.16l16.502.467q3.745.117 5.852-1.872 2.223-1.99 3.394-5.384 1.17-3.51 1.755-7.607h7.256l-1.755 22.939zM674.431 83.52q3.276 0 4.681-1.287 1.404-1.288 1.756-3.628.468-2.458.468-5.5V53.675q0-2.106.117-4.798.117-2.809.351-5.384-1.873.117-4.448.234-2.457 0-3.745.117v-8.894q5.384 0 9.129-.586 3.745-.585 5.852-1.404 2.223-.819 3.043-1.521h6.32v40.845q0 1.639-.117 4.681-.117 2.925-.352 5.618a33 33 0 0 1 4.097-.234q2.34-.117 3.511-.117v8.894h-30.663zm14.629-61.326q-3.979 0-6.554-2.81-2.575-2.808-2.575-6.787t2.692-6.788q2.692-2.81 6.32-2.809 3.745 0 6.203 2.809 2.574 2.808 2.575 6.788 0 3.979-2.341 6.788-2.341 2.808-6.32 2.809M618.199 83.52q3.277 0 4.682-1.287 1.404-1.288 1.755-3.628.468-2.458.468-5.501V53.442q0-2.106.117-4.681.117-2.692.351-5.267-1.872.117-4.447.234-2.457 0-3.745.117v-8.894h4.681q4.565 0 8.31-1.17 3.862-1.171 5.032-2.341h5.735q.234 1.17.351 4.447.117 3.16.117 5.618 3.16-3.863 5.969-6.203t5.501-3.394q2.809-1.17 5.617-1.17 4.097 0 7.139 2.34 3.043 2.223 3.043 7.373 0 1.755-.819 3.745-.819 1.873-2.575 3.16-1.755 1.288-4.798 1.288-2.341 0-4.799-1.405-2.457-1.404-2.808-5.383-2.341 0-4.682 1.99-2.34 1.872-4.213 4.564-1.755 2.575-2.458 4.798v19.077q0 1.639-.117 4.681-.117 2.925-.351 5.618a33 33 0 0 1 4.096-.234q2.341-.117 3.511-.117v8.894h-30.663zM580.583 93q-8.426 0-15.214-3.628t-10.768-10.3q-3.861-6.787-3.862-15.916 0-9.714 3.979-16.97 4.096-7.374 10.768-11.352 6.788-4.097 14.746-4.097 8.427 0 15.098 3.628 6.67 3.629 10.533 10.417 3.862 6.671 3.862 16.033 0 9.831-3.745 17.088-3.745 7.255-10.299 11.235Q589.126 93 580.583 93m.468-8.31q4.682-.117 7.022-3.276 2.458-3.16 3.394-7.959a50.5 50.5 0 0 0 .937-9.714q0-4.33-.702-8.777-.586-4.448-1.99-8.076t-3.862-5.852q-2.341-2.223-5.852-2.106-4.565.117-7.256 3.277-2.575 3.16-3.745 7.958-1.053 4.682-1.054 9.831 0 5.969 1.288 11.704 1.287 5.734 4.096 9.48 2.926 3.628 7.724 3.51M461.644 91.128v-7.725q2.691-.117 4.447-.702 1.872-.585 2.809-2.692 1.053-2.106 1.053-6.788V28.397q0-3.16.117-6.086.234-2.926.351-4.447-1.873.117-4.681.234-2.81 0-4.096.117V9.203h33.589v7.724q-2.575.118-4.448.703-1.872.585-2.926 2.692-.936 1.99-.936 6.788v18.257h32.185v-16.97q0-3.16.117-6.086t.351-4.447q-1.872.117-4.681.234-2.809 0-4.097.117V9.203h33.589v7.724q-2.574.118-4.447.703t-2.926 2.692q-.936 1.99-.936 6.788v44.824q0 3.16-.117 6.086-.117 2.925-.351 4.447 1.872-.234 4.681-.234 2.926-.117 4.096-.117v9.012h-33.589v-7.725q2.692-.117 4.448-.702 1.872-.585 2.808-2.692 1.054-2.106 1.054-6.788v-18.96l-32.185.352v17.321q0 3.16-.117 6.086-.117 2.925-.351 4.447 1.873-.234 4.681-.234 2.926-.117 4.097-.117v9.012zM352.773 91.479l-14.162-40.611a156 156 0 0 0-1.638-4.565 34 34 0 0 1-.702-2.574 94 94 0 0 0-.586-2.458l-4.564.234V32.61h28.089v7.49q-3.629.118-4.214 2.81-.585 2.69.351 6.32l3.98 14.278q.702 2.575 1.287 5.5a72 72 0 0 1 1.17 5.618q.586-2.458 1.171-5.384.702-2.926 1.989-7.256l8.544-29.376h12.757l9.362 32.302q.703 2.458 1.405 5.384a139 139 0 0 1 1.404 5.15q.469-2.342 1.288-5.15t1.521-5.033L405.79 50.4q.936-3.16 1.638-5.15a32 32 0 0 1 1.756-4.213l-6.671.468V32.61h22.236v7.49q-2.34 0-4.096 1.522-1.755 1.522-3.16 3.745a26.6 26.6 0 0 0-2.107 4.213q-.819 1.99-1.17 3.16L400.874 91.48h-12.406l-8.075-24.929q-.351-1.287-1.17-3.745-.703-2.457-1.522-5.266-.702-2.925-1.404-5.384-.586 3.278-1.756 7.49a387 387 0 0 1-2.224 7.725q-1.053 3.51-1.521 4.798l-6.437 19.31zM299.746 93q-8.544 0-15.098-3.745-6.553-3.862-10.182-10.767-3.628-7.023-3.628-16.502 0-8.193 3.628-15.332t10.182-11.47q6.67-4.446 15.449-4.447 4.915 0 9.597 1.405 4.681 1.287 8.426 4.564 3.862 3.278 6.086 8.895 2.34 5.617 2.224 14.044l-38.388.702q0 6.32 1.522 11.353 1.638 5.032 5.266 7.958 3.628 2.925 9.714 2.926 2.34 0 5.267-.82 3.043-.818 6.085-2.691 3.16-1.99 5.852-5.267l5.267 4.916q-4.213 5.969-9.012 9.129-4.799 3.042-9.597 4.096Q303.724 93 299.746 93m-11.002-40.845h21.535q-.117-4.916-1.405-7.725-1.17-2.925-3.277-4.213-2.106-1.287-4.915-1.287-5.15 0-8.076 3.745-2.925 3.629-3.862 9.48M247.891 92.298 210.44 44.431a296 296 0 0 1-3.16-4.213 232 232 0 0 1-3.277-4.565h-.117l.234 36.281q0 3.16-.117 6.086-.117 2.925-.351 4.447 1.873-.234 4.681-.234 2.926-.117 4.097-.117v9.012h-26.684v-7.725q2.692-.117 4.447-.702 1.872-.585 2.809-2.692 1.053-2.106 1.053-6.788l-.234-44.824q0-3.16.117-6.086t.351-4.447q-1.873.117-4.798.234-2.81 0-4.096.117V9.203h18.374l35.813 45.176q2.925 3.745 4.798 6.437a266 266 0 0 1 3.394 4.681h.117v-37.1q0-3.16.117-6.086t.234-4.447q-1.872.117-4.681.234-2.81 0-4.096.117V9.203h26.684v7.724q-2.575.118-4.448.703-1.872.585-2.925 2.692-.937 1.99-.937 6.788v65.188z"/></g><defs><clipPath id="a"><path fill="#fff" d="M0 0h962v96H0z"/></clipPath></defs></svg>