<svg width="192" height="192" viewBox="0 0 192 192" fill="none" xmlns="http://www.w3.org/2000/svg">
<rect width="192" height="192" rx="96" fill="url(#paint0_linear_2245_64)"/>
<path opacity="0.2" d="M126 81C126 86.9334 124.241 92.7336 120.944 97.6671C117.648 102.601 112.962 106.446 107.481 108.716C101.999 110.987 95.9667 111.581 90.1473 110.424C84.3279 109.266 78.9824 106.409 74.7868 102.213C70.5912 98.0176 67.734 92.6721 66.5765 86.8527C65.4189 81.0333 66.013 75.0013 68.2836 69.5195C70.5543 64.0377 74.3994 59.3524 79.3329 56.0559C84.2664 52.7595 90.0666 51 96 51C103.957 51 111.587 54.1607 117.213 59.7868C122.839 65.4129 126 73.0435 126 81Z" fill="#EBEFFF"/>
<path d="M144.244 135.375C137.105 123.033 126.103 114.183 113.264 109.988C119.615 106.207 124.549 100.446 127.309 93.5897C130.069 86.7334 130.501 79.1607 128.541 72.0345C126.58 64.9084 122.335 58.6228 116.456 54.1431C110.577 49.6634 103.391 47.2373 95.9999 47.2373C88.609 47.2373 81.4224 49.6634 75.5438 54.1431C69.6652 58.6228 65.4196 64.9084 63.459 72.0345C61.4985 79.1607 61.9313 86.7334 64.6911 93.5897C67.4509 100.446 72.3851 106.207 78.7359 109.988C65.8968 114.178 54.8952 123.028 47.7562 135.375C47.4944 135.802 47.3207 136.277 47.2455 136.772C47.1702 137.267 47.1949 137.772 47.318 138.258C47.4411 138.743 47.6602 139.199 47.9624 139.598C48.2645 139.998 48.6436 140.332 49.0772 140.583C49.5109 140.833 49.9903 140.994 50.4872 141.057C50.984 141.119 51.4884 141.081 51.9703 140.945C52.4523 140.809 52.9022 140.578 53.2935 140.265C53.6847 139.953 54.0094 139.565 54.2484 139.125C63.0796 123.863 78.689 114.75 95.9999 114.75C113.311 114.75 128.92 123.863 137.751 139.125C137.99 139.565 138.315 139.953 138.706 140.265C139.098 140.578 139.548 140.809 140.03 140.945C140.511 141.081 141.016 141.119 141.513 141.057C142.01 140.994 142.489 140.833 142.923 140.583C143.356 140.332 143.735 139.998 144.037 139.598C144.34 139.199 144.559 138.743 144.682 138.258C144.805 137.772 144.83 137.267 144.754 136.772C144.679 136.277 144.505 135.802 144.244 135.375ZM69.7499 81.0001C69.7499 75.8083 71.2895 70.7331 74.1738 66.4163C77.0582 62.0995 81.1579 58.735 85.9545 56.7482C90.751 54.7614 96.029 54.2416 101.121 55.2544C106.213 56.2673 110.89 58.7674 114.561 62.4385C118.233 66.1096 120.733 70.7869 121.746 75.8789C122.758 80.9709 122.239 86.2489 120.252 91.0455C118.265 95.8421 114.9 99.9417 110.584 102.826C106.267 105.711 101.192 107.25 95.9999 107.25C89.0403 107.243 82.3678 104.475 77.4466 99.5534C72.5254 94.6322 69.7574 87.9597 69.7499 81.0001Z" fill="#EBEFFF"/>
<defs>
<linearGradient id="paint0_linear_2245_64" x1="96" y1="0" x2="96" y2="192" gradientUnits="userSpaceOnUse">
<stop stop-color="#0866FF"/>
<stop offset="1" stop-color="#0042AD"/>
</linearGradient>
</defs>
</svg>
