<svg xmlns="http://www.w3.org/2000/svg" width="192" height="192" fill="none" viewBox="0 0 192 192"><rect width="192" height="192" fill="url(#a)" rx="96"/><path fill="#ebefff" d="M126 81a30 30 0 0 1-18.519 27.716 30 30 0 0 1-32.694-6.503 29.998 29.998 0 0 1 4.546-46.157A30 30 0 0 1 126 81" opacity=".2"/><path fill="#ebefff" d="M144.244 135.375c-7.139-12.342-18.141-21.192-30.98-25.387a33.75 33.75 0 0 0 15.277-37.954 33.75 33.75 0 1 0-49.805 37.954c-12.84 4.19-23.84 13.04-30.98 25.387a3.75 3.75 0 1 0 6.492 3.75C63.08 123.863 78.69 114.75 96 114.75s32.92 9.113 41.751 24.375a3.75 3.75 0 0 0 2.279 1.82 3.749 3.749 0 0 0 4.214-5.57M69.75 81A26.25 26.25 0 1 1 96 107.25 26.275 26.275 0 0 1 69.75 81"/><defs><linearGradient id="a" x1="96" x2="96" y1="0" y2="192" gradientUnits="userSpaceOnUse"><stop stop-color="#0866ff"/><stop offset="1" stop-color="#0042ad"/></linearGradient></defs></svg>