<svg xmlns="http://www.w3.org/2000/svg" width="32" height="32" fill="none" viewBox="0 0 32 32"><path fill="#fff" d="M28 5.998v16a1 1 0 0 1-1 1h-8.134l-2 3.5a1 1 0 0 1-1.737 0l-2-3.5H5a1 1 0 0 1-1-1v-16a1 1 0 0 1 1-1h22a1 1 0 0 1 1 1" opacity=".24"/><path fill="url(#a)" d="M27 4H5a2 2 0 0 0-2 2v16a2 2 0 0 0 2 2h7.554l1.71 2.992a1.998 1.998 0 0 0 3.472 0L19.446 24H27a2 2 0 0 0 2-2V6a2 2 0 0 0-2-2m0 18h-8.134a1 1 0 0 0-.875.5l-2 3.5-2-3.5a1 1 0 0 0-.875-.5H5V6h22z"/><defs><linearGradient id="a" x1="4.793" x2="28.737" y1="4" y2="26.362" gradientUnits="userSpaceOnUse"><stop stop-color="#cfcfcf"/><stop offset=".64" stop-color="#e5e5e5"/><stop offset="1" stop-color="#8f8f8f"/></linearGradient></defs></svg>