<svg xmlns="http://www.w3.org/2000/svg" width="32" height="32" fill="none" viewBox="0 0 32 32"><path fill="#fff" d="M28 7.75v8a8 8 0 0 1-8 8H4v-8a8 8 0 0 1 8-8z" opacity=".24"/><path fill="url(#a)" d="M3 16a9.01 9.01 0 0 1 9-9h13.586l-1.294-1.292a1 1 0 0 1 1.415-1.415l3 3a1 1 0 0 1 0 1.415l-3 3a1 1 0 0 1-1.415-1.415L25.586 9H12a7.007 7.007 0 0 0-7 7 1 1 0 0 1-2 0m25-1a1 1 0 0 0-1 1 7.007 7.007 0 0 1-7 7H6.414l1.293-1.292a1 1 0 1 0-1.415-1.415l-3 3a1 1 0 0 0 0 1.415l3 3a1.001 1.001 0 0 0 1.415-1.415L6.414 25H20a9.01 9.01 0 0 0 9-9 1 1 0 0 0-1-1"/><defs><linearGradient id="a" x1="4.792" x2="28.737" y1="4" y2="26.363" gradientUnits="userSpaceOnUse"><stop stop-color="#cfcfcf"/><stop offset=".64" stop-color="#e5e5e5"/><stop offset="1" stop-color="#8f8f8f"/></linearGradient></defs></svg>