<svg xmlns="http://www.w3.org/2000/svg" width="90" height="35" fill="none" viewBox="0 0 90 35"><path fill="#4da8ff" d="M39.68 8.32q1.36 1.4 3.32 1.4 1.28 0 2.32-.64a5.2 5.2 0 0 0 1.72-1.76 4.9 4.9 0 0 0 .64-2.48q0-1.36-.64-2.44T45.32.68A4.15 4.15 0 0 0 43 0q-1.32 0-2.4.68-1.04.64-1.68 1.72-.6 1.08-.6 2.44 0 2.04 1.36 3.48"/><path fill="url(#a)" d="M53.307 10.24q1.239 0 1.92.48t1.04 1.12q.919-.68 2.279-1.08a9.4 9.4 0 0 1 2.92-.44q2.6 0 4.72 1.28 2.16 1.28 3.44 3.44 1.28 2.12 1.28 4.72t-1.28 4.76a9.66 9.66 0 0 1-3.44 3.44q-2.12 1.28-4.72 1.28-1.6 0-2.96-.4-1.36-.44-2.28-1.16 0 2-.16 3.64-.12 1.64-.8 2.56-.68.96-2.28.96-1.56 0-2.44-1.24-.84-1.2-1.2-3.16a34 34 0 0 1-.4-4.2 239 239 0 0 1-.04-4.24q0-1.76.08-3.76.12-2.04.48-3.84.4-1.84 1.32-3 .921-1.16 2.52-1.16M43 11.84q1.6 0 2.36.92.801.88 1.08 2.8.28 1.92.28 4.92.04 3-.24 4.92-.279 1.88-1.08 2.8-.8.92-2.4.92t-2.4-.92q-.76-.92-1.04-2.8-.24-1.92-.28-4.92 0-3 .24-4.92.28-1.92 1.08-2.8.801-.92 2.4-.92m37.99-1.52q2.32 0 4.16.64t2.92 1.76q1.08 1.08 1.08 2.4 0 1.24-.8 1.88t-2.08.64q-.72 0-1.16-.2a26 26 0 0 0-.76-.44q-.32-.2-.92-.2a.77.77 0 0 0-.56.24.65.65 0 0 0-.241.52q0 .24.2.48t.68.4q1.24.4 2.4 1.04 1.2.6 1.96 1.6.8.96.8 2.48 0 2.6-2.44 4.08t-6.44 1.48q-3.52 0-5.6-1.16t-2.08-3q0-1.28.84-1.88.88-.64 2.08-.64.96 0 1.4.32.48.32.84.64t.88.32q.84 0 .84-.6 0-.8-.96-1.16a47 47 0 0 1-2.32-1q-1.92-.92-2.76-2.12-.84-1.24-.84-2.52 0-1.52 1.08-2.88t3.04-2.24q2-.88 4.76-.88m-68.03-9.2q3.56 0 6.24 1.32 2.68 1.28 4.16 3.52 1.52 2.24 1.52 5 0 1.08-.44 2.08a3.7 3.7 0 0 1-1.28 1.6q-.84.64-2.2.64-1.28 0-2.04-.4a5 5 0 0 1-1.24-.96q-.48-.6-1-1.2a4.4 4.4 0 0 0-1.28-1q-.76-.4-2.08-.4-1.24 0-2.28.64a4.85 4.85 0 0 0-1.68 1.76q-.6 1.08-.6 2.48 0 2.08 1.08 3.64Q10.96 21.4 13 21.4q1.599 0 2.52-.48.96-.48 1.6-1.08.68-.64 1.44-1.12.8-.48 2.04-.48 1.76 0 2.64 1.16.92 1.16.76 2.84-.16 1.72-1.52 3.28-1.32 1.56-3.6 2.56-2.24.96-5.16.96-3.8 0-6.92-1.52-3.12-1.56-4.96-4.68T0 15.04q0-2.76.96-5.24a14.6 14.6 0 0 1 2.68-4.48 13 13 0 0 1 4.12-3.08q2.36-1.12 5.2-1.12m18.635 0q1.72 0 2.68 1.04.96 1 1.4 2.88.44 1.84.52 4.4.12 2.56.12 5.64 0 7.04-1 10.52-.96 3.44-3.76 3.44-2.04 0-3.04-1.52-1-1.56-1.32-4.64-.32-3.12-.32-7.8 0-3.08.08-5.64.12-2.56.56-4.4.44-1.88 1.4-2.88.96-1.04 2.68-1.04M61.267 17.4q-1.041 0-1.841.8-.76.76-.76 1.8t.76 1.84q.8.76 1.84.76t1.8-.76q.8-.8.8-1.84t-.8-1.8q-.759-.8-1.8-.8"/><defs><linearGradient id="a" x1="0" x2="88.735" y1="6.221" y2="31.21" gradientUnits="userSpaceOnUse"><stop stop-color="#d7d7d7"/><stop offset=".33" stop-color="#fff"/><stop offset=".66" stop-color="#ebebeb"/><stop offset="1" stop-color="#d4d4d4"/></linearGradient></defs></svg>