<svg width="192" height="192" viewBox="0 0 192 192" fill="none" xmlns="http://www.w3.org/2000/svg">
<rect width="192" height="192" rx="48" fill="url(#paint0_linear_2470_104)"/>
<path d="M165.766 51.3547C160.186 42.2227 145.473 41.208 124.165 48.3107C116.048 43.2374 106.408 40.1934 95.7541 40.1934C64.8068 40.1934 39.9474 65.0527 39.9474 96.0001C39.9474 98.0295 39.9474 100.059 40.4547 102.088C26.2493 117.816 21.176 131.006 26.7567 139.631C30.308 145.212 36.396 147.241 44.5134 147.241C62.2701 147.241 89.1588 136.08 112.496 120.86C130.253 109.698 145.98 96.5075 155.62 83.8241C170.332 67.0821 169.318 56.9354 165.766 51.3547ZM35.3814 134.558C33.352 131.514 35.3814 124.411 43.4987 114.772C46.5427 122.889 51.1087 129.992 57.1967 136.08C45.5281 138.616 37.4107 138.109 35.3814 134.558ZM148.517 77.7361C145.473 69.1114 140.907 61.5014 134.312 55.4134C147.502 52.3694 155.112 53.384 157.142 56.4281C159.171 59.4721 157.649 66.5747 148.517 77.7361Z" fill="#EBEFFF"/>
<path d="M74.4453 147.748C81.0407 150.285 88.1433 151.807 95.7534 151.807C125.179 151.807 149.023 128.977 151.56 100.059C141.921 109.191 130.252 118.323 118.076 126.44C102.856 135.572 88.1433 143.182 74.4453 147.748Z" fill="#79AAFF"/>
<defs>
<linearGradient id="paint0_linear_2470_104" x1="96" y1="0" x2="96" y2="192" gradientUnits="userSpaceOnUse">
<stop stop-color="#0866FF"/>
<stop offset="1" stop-color="#0042AD"/>
</linearGradient>
</defs>
</svg>
